<svg height="268" viewBox="0 0 796 268" xmlns="http://www.w3.org/2000/svg" xmlns:xlink="http://www.w3.org/1999/xlink" id="mermaidChart180" color="#333333" fill="#333333" font-family="Arial" font-size="16" overflow="hidden"><g font-size="16"></g><g font-size="16"></g><g fill="none" font-size="10" text-anchor="middle" transform="translate(75 218)"><path d="M0.5-183 0.5 0.5 701.5 0.5 701.5-183" stroke="#333333" stroke-width="0" font-size="10"/><g stroke="#D3D3D3" font-size="10" opacity="0.8" transform="translate(0.5 0)"><line x1="0" y1="0" x2="0" y2="-183" stroke="#333333" font-size="10"/><text stroke="none" fill="#333333" font-size="10" y="3" dy="1em">2022-06-25</text></g><g stroke="#D3D3D3" font-size="10" opacity="0.8" transform="translate(58.5 0)"><line x1="0" y1="0" x2="0" y2="-183" stroke="#333333" font-size="10"/><text stroke="none" fill="#333333" font-size="10" y="3" dy="1em">2022-06-26</text></g><g stroke="#D3D3D3" font-size="10" opacity="0.8" transform="translate(117.5 0)"><line x1="0" y1="0" x2="0" y2="-183" stroke="#333333" font-size="10"/><text stroke="none" fill="#333333" font-size="10" y="3" dy="1em">2022-06-27</text></g><g stroke="#D3D3D3" font-size="10" opacity="0.8" transform="translate(175.5 0)"><line x1="0" y1="0" x2="0" y2="-183" stroke="#333333" font-size="10"/><text stroke="none" fill="#333333" font-size="10" y="3" dy="1em">2022-06-28</text></g><g stroke="#D3D3D3" font-size="10" opacity="0.8" transform="translate(234.5 0)"><line x1="0" y1="0" x2="0" y2="-183" stroke="#333333" font-size="10"/><text stroke="none" fill="#333333" font-size="10" y="3" dy="1em">2022-06-29</text></g><g stroke="#D3D3D3" font-size="10" opacity="0.8" transform="translate(292.5 0)"><line x1="0" y1="0" x2="0" y2="-183" stroke="#333333" font-size="10"/><text stroke="none" fill="#333333" font-size="10" y="3" dy="1em">2022-06-30</text></g><g stroke="#D3D3D3" font-size="10" opacity="0.8" transform="translate(351.5 0)"><line x1="0" y1="0" x2="0" y2="-183" stroke="#333333" font-size="10"/><text stroke="none" fill="#333333" font-size="10" y="3" dy="1em">2022-07-01</text></g><g stroke="#D3D3D3" font-size="10" opacity="0.8" transform="translate(409.5 0)"><line x1="0" y1="0" x2="0" y2="-183" stroke="#333333" font-size="10"/><text stroke="none" fill="#333333" font-size="10" y="3" dy="1em">2022-07-02</text></g><g stroke="#D3D3D3" font-size="10" opacity="0.8" transform="translate(467.5 0)"><line x1="0" y1="0" x2="0" y2="-183" stroke="#333333" font-size="10"/><text stroke="none" fill="#333333" font-size="10" y="3" dy="1em">2022-07-03</text></g><g stroke="#D3D3D3" font-size="10" opacity="0.8" transform="translate(526.5 0)"><line x1="0" y1="0" x2="0" y2="-183" stroke="#333333" font-size="10"/><text stroke="none" fill="#333333" font-size="10" y="3" dy="1em">2022-07-04</text></g><g stroke="#D3D3D3" font-size="10" opacity="0.8" transform="translate(584.5 0)"><line x1="0" y1="0" x2="0" y2="-183" stroke="#333333" font-size="10"/><text stroke="none" fill="#333333" font-size="10" y="3" dy="1em">2022-07-05</text></g><g stroke="#D3D3D3" font-size="10" opacity="0.8" transform="translate(643.5 0)"><line x1="0" y1="0" x2="0" y2="-183" stroke="#333333" font-size="10"/><text stroke="none" fill="#333333" font-size="10" y="3" dy="1em">2022-07-06</text></g><g stroke="#D3D3D3" font-size="10" opacity="0.8" transform="translate(701.5 0)"><line x1="0" y1="0" x2="0" y2="-183" stroke="#333333" font-size="10"/><text stroke="none" fill="#333333" font-size="10" y="3" dy="1em">2022-07-07</text></g></g><g font-size="16"><rect x="0" y="48" width="786" height="24" font-size="16" opacity="0.2"/><rect x="0" y="120" width="786" height="24" fill="#FFFFFF" font-size="16" opacity="0.2"/><rect x="0" y="72" width="786" height="24" font-size="16" opacity="0.2"/><rect x="0" y="144" width="786" height="24" fill="#FFFFFF" font-size="16" opacity="0.2"/><rect x="0" y="96" width="786" height="24" font-size="16" opacity="0.2"/><rect x="0" y="168" width="786" height="24" fill="#FFFFFF" font-size="16" opacity="0.2"/><rect x="0" y="192" width="786" height="24" fill="#FFFFFF" font-size="16" opacity="0.2"/></g><g font-size="16"><rect x="75" y="50" rx="3" ry="3" width="175" height="20" id="task1" stroke="#808080" stroke-width="2" fill="#D3D3D3" font-size="16"/><rect x="133" y="122" rx="3" ry="3" width="234" height="20" id="task4" stroke="#808080" stroke-width="2" fill="#D3D3D3" font-size="16"/><rect x="250" y="74" rx="3" ry="3" width="176" height="20" id="task2" stroke="#808080" stroke-width="2" fill="#D3D3D3" font-size="16"/><rect x="367" y="146" rx="3" ry="3" width="117" height="20" id="task5" stroke="#FF8888" stroke-width="2" fill="#D3D3D3" font-size="16"/><rect x="484" y="98" rx="3" ry="3" width="292" height="20" id="task3" stroke="#808080" stroke-width="2" fill="#D3D3D3" font-size="16"/><rect x="484" y="170" rx="3" ry="3" width="117" height="20" id="task6" stroke="#FF8888" stroke-width="2" fill="#D3D3D3" font-size="16"/><rect x="601" y="194" rx="3" ry="3" width="175" height="20" id=":done" stroke="#534FBC" stroke-width="2" fill="#8A90DD" font-size="16"/><text id="task1-text" fill="#000000" font-size="11" text-anchor="middle" x="162.5" y="63.5">选题</text><text id="task4-text" fill="#000000" font-size="11" text-anchor="middle" x="250" y="135.5">讨论需求</text><text id="task2-text" fill="#000000" font-size="11" text-anchor="middle" x="338" y="87.5">Pretrain-Baseline搭建</text><text id="task5-text" fill="#000000" font-size="11" text-anchor="middle" x="425.5" y="159.5">第一轮开发</text><text id="task3-text" fill="#000000" font-size="11" text-anchor="middle" x="630" y="111.5">Bert-Pipline搭建</text><text id="task6-text" fill="#000000" font-size="11" text-anchor="middle" x="542.5" y="183.5">第二轮开发</text><text id=":done-text" fill="#FFFFFF" font-size="11" text-anchor="middle" x="688.5" y="207.5">写报告，PPT</text></g><g font-size="16"><text font-size="11" x="10" y="86" dy="0em"><tspan font-size="11" x="10">模型开发</tspan></text><text font-size="11" x="10" y="170" dy="0em"><tspan font-size="11" x="10">平台开发</tspan></text></g><g stroke="#FF0000" stroke-width="2" fill="none" font-size="16"><line x1="744" y1="25" x2="744" y2="243" font-size="16"/></g><text font-size="18" text-anchor="middle" x="398" y="25">智能分类平台搭建流程</text></svg>